<svg xmlns="http://www.w3.org/2000/svg" viewBox="0 0 64 64">
  <rect width="64" height="64" rx="12" fill="#0a1628"/>
  <polygon points="32,4 56,18 56,46 32,60 8,46 8,18" fill="none" stroke="#1a3a5c" stroke-width="1.5"/>
  <polygon points="32,12 50,22 50,42 32,52 14,42 14,22" fill="none" stroke="#00B4D8" stroke-width="2"/>
  <polygon points="32,22 44,29 44,43 32,50 20,43 20,29" fill="#00B4D8" fill-opacity="0.12" stroke="#00B4D8" stroke-width="1.5"/>
  <line x1="32" y1="36" x2="32" y2="4" stroke="#00B4D8" stroke-width="0.8" stroke-opacity="0.4"/>
  <line x1="32" y1="36" x2="56" y2="18" stroke="#00B4D8" stroke-width="0.8" stroke-opacity="0.4"/>
  <line x1="32" y1="36" x2="56" y2="46" stroke="#00B4D8" stroke-width="0.8" stroke-opacity="0.4"/>
  <line x1="32" y1="36" x2="32" y2="60" stroke="#00B4D8" stroke-width="0.8" stroke-opacity="0.4"/>
  <line x1="32" y1="36" x2="8" y2="46" stroke="#00B4D8" stroke-width="0.8" stroke-opacity="0.4"/>
  <line x1="32" y1="36" x2="8" y2="18" stroke="#00B4D8" stroke-width="0.8" stroke-opacity="0.4"/>
  <circle cx="32" cy="4" r="2.5" fill="#00B4D8" opacity="0.7"/>
  <circle cx="56" cy="18" r="2.5" fill="#00B4D8" opacity="0.7"/>
  <circle cx="56" cy="46" r="2.5" fill="#00B4D8" opacity="0.7"/>
  <circle cx="32" cy="60" r="2.5" fill="#00B4D8" opacity="0.7"/>
  <circle cx="8" cy="46" r="2.5" fill="#00B4D8" opacity="0.7"/>
  <circle cx="8" cy="18" r="2.5" fill="#00B4D8" opacity="0.7"/>
  <circle cx="32" cy="36" r="5" fill="#00B4D8"/>
  <circle cx="32" cy="36" r="2.5" fill="white"/>
</svg>
